<svg xmlns="http://www.w3.org/2000/svg" xmlns:xlink="http://www.w3.org/1999/xlink" preserveAspectRatio="xMidYMid" width="379.032" height="105.531" viewBox="0 0 379.032 105.531">
  <defs>
    <style>
      .cls-1 {
        fill: #000;
        fill-rule: evenodd;
      }
    </style>
  </defs>
  <path d="M377.929,18.606 C377.588,18.940 377.188,19.202 376.729,19.393 C376.271,19.585 375.775,19.681 375.242,19.681 C374.708,19.681 374.208,19.585 373.742,19.393 C373.275,19.202 372.875,18.940 372.542,18.606 C372.208,18.273 371.946,17.877 371.754,17.418 C371.563,16.960 371.467,16.465 371.467,15.931 C371.467,15.415 371.563,14.923 371.754,14.456 C371.946,13.990 372.208,13.590 372.542,13.256 C372.875,12.923 373.275,12.656 373.742,12.456 C374.208,12.256 374.708,12.156 375.242,12.156 C375.775,12.156 376.271,12.256 376.729,12.456 C377.188,12.656 377.588,12.923 377.929,13.256 C378.271,13.590 378.542,13.990 378.742,14.456 C378.942,14.923 379.042,15.415 379.042,15.931 C379.042,16.465 378.942,16.960 378.742,17.418 C378.542,17.877 378.271,18.273 377.929,18.606 ZM367.880,17.069 C367.722,17.194 367.509,17.256 367.243,17.256 C366.993,17.256 366.622,17.215 366.130,17.131 C365.638,17.048 365.159,17.006 364.693,17.006 C364.009,17.006 363.401,17.106 362.868,17.306 C362.334,17.506 361.855,17.793 361.430,18.168 C361.005,18.543 360.630,18.998 360.305,19.531 C359.980,20.065 359.676,20.673 359.393,21.356 L359.393,37.156 L353.218,37.156 L353.218,11.506 L356.843,11.506 C357.476,11.506 357.918,11.618 358.168,11.844 C358.418,12.069 358.584,12.473 358.668,13.056 L359.043,15.956 C359.843,14.423 360.793,13.219 361.893,12.344 C362.993,11.469 364.293,11.031 365.793,11.031 C366.976,11.031 367.926,11.290 368.643,11.806 L368.243,16.431 C368.159,16.731 368.038,16.944 367.880,17.069 ZM347.143,25.106 L331.268,25.106 C331.368,26.423 331.601,27.560 331.968,28.519 C332.334,29.477 332.818,30.268 333.418,30.893 C334.018,31.518 334.730,31.985 335.555,32.293 C336.380,32.602 337.293,32.756 338.293,32.756 C339.293,32.756 340.155,32.640 340.880,32.406 C341.605,32.173 342.239,31.915 342.780,31.631 C343.322,31.348 343.797,31.090 344.205,30.856 C344.614,30.623 345.009,30.506 345.393,30.506 C345.909,30.506 346.293,30.698 346.543,31.081 L348.318,33.331 C347.634,34.131 346.868,34.802 346.018,35.344 C345.168,35.885 344.280,36.318 343.355,36.644 C342.430,36.968 341.489,37.197 340.530,37.331 C339.572,37.464 338.643,37.531 337.743,37.531 C335.959,37.531 334.301,37.235 332.768,36.644 C331.234,36.052 329.901,35.177 328.768,34.018 C327.634,32.860 326.743,31.427 326.093,29.719 C325.443,28.010 325.118,26.031 325.118,23.781 C325.118,22.031 325.401,20.385 325.968,18.844 C326.534,17.302 327.347,15.960 328.405,14.819 C329.464,13.677 330.755,12.773 332.280,12.106 C333.805,11.440 335.526,11.106 337.443,11.106 C339.059,11.106 340.551,11.365 341.918,11.881 C343.284,12.398 344.459,13.152 345.443,14.143 C346.426,15.135 347.197,16.352 347.755,17.793 C348.314,19.235 348.593,20.881 348.593,22.731 C348.593,23.665 348.493,24.293 348.293,24.618 C348.093,24.943 347.709,25.106 347.143,25.106 ZM342.705,19.118 C342.480,18.410 342.143,17.790 341.693,17.256 C341.243,16.723 340.672,16.302 339.980,15.993 C339.289,15.685 338.484,15.531 337.568,15.531 C335.784,15.531 334.380,16.040 333.355,17.056 C332.330,18.073 331.676,19.515 331.393,21.381 L343.043,21.381 C343.043,20.581 342.930,19.827 342.705,19.118 ZM330.468,65.331 L328.543,68.381 C328.243,68.865 327.851,69.160 327.368,69.268 C326.884,69.377 326.359,69.256 325.793,68.906 C325.243,68.590 324.693,68.273 324.143,67.956 C323.593,67.640 322.980,67.365 322.305,67.131 C321.630,66.898 320.872,66.706 320.030,66.556 C319.189,66.406 318.218,66.331 317.118,66.331 C315.334,66.331 313.722,66.631 312.280,67.231 C310.839,67.831 309.609,68.690 308.593,69.806 C307.576,70.923 306.793,72.265 306.243,73.831 C305.693,75.398 305.418,77.148 305.418,79.081 C305.418,81.148 305.714,82.994 306.305,84.619 C306.897,86.244 307.730,87.619 308.805,88.744 C309.880,89.869 311.176,90.727 312.693,91.318 C314.209,91.910 315.901,92.206 317.768,92.206 C319.101,92.206 320.293,92.065 321.343,91.781 C322.393,91.498 323.418,91.115 324.418,90.631 L324.418,84.081 L319.868,84.081 C319.434,84.081 319.097,83.960 318.855,83.718 C318.614,83.477 318.493,83.181 318.493,82.831 L318.493,79.031 L330.493,79.031 L330.493,93.656 C328.659,95.006 326.705,95.994 324.630,96.619 C322.555,97.244 320.334,97.556 317.968,97.556 C315.018,97.556 312.347,97.098 309.955,96.181 C307.564,95.265 305.522,93.990 303.830,92.356 C302.139,90.723 300.834,88.773 299.918,86.506 C299.001,84.240 298.543,81.765 298.543,79.081 C298.543,76.365 298.984,73.873 299.868,71.606 C300.751,69.340 302.005,67.390 303.630,65.756 C305.255,64.123 307.226,62.856 309.543,61.956 C311.859,61.056 314.459,60.606 317.343,60.606 C318.809,60.606 320.180,60.723 321.455,60.956 C322.730,61.190 323.914,61.510 325.005,61.919 C326.097,62.327 327.093,62.823 327.993,63.406 C328.893,63.990 329.718,64.631 330.468,65.331 ZM314.493,20.831 C314.493,19.265 314.135,18.052 313.418,17.194 C312.701,16.335 311.610,15.906 310.143,15.906 C309.076,15.906 308.076,16.148 307.143,16.631 C306.210,17.115 305.326,17.773 304.493,18.606 L304.493,37.156 L298.318,37.156 L298.318,11.506 L302.093,11.506 C302.893,11.506 303.418,11.881 303.668,12.631 L304.093,14.656 C304.610,14.140 305.156,13.660 305.731,13.219 C306.306,12.777 306.914,12.402 307.556,12.094 C308.197,11.785 308.885,11.543 309.618,11.368 C310.351,11.194 311.151,11.106 312.018,11.106 C313.418,11.106 314.660,11.344 315.743,11.819 C316.826,12.293 317.731,12.960 318.456,13.819 C319.181,14.677 319.731,15.702 320.106,16.893 C320.481,18.085 320.668,19.398 320.668,20.831 L320.668,37.156 L314.493,37.156 L314.493,20.831 ZM277.443,97.156 L262.843,61.006 L268.243,61.006 C268.827,61.006 269.302,61.148 269.668,61.431 C270.035,61.715 270.310,62.081 270.493,62.531 L279.018,84.581 C279.302,85.298 279.572,86.085 279.831,86.943 C280.089,87.802 280.335,88.698 280.568,89.631 C280.768,88.698 280.985,87.802 281.218,86.943 C281.452,86.085 281.710,85.298 281.993,84.581 L290.468,62.531 C290.602,62.148 290.864,61.798 291.256,61.481 C291.647,61.165 292.127,61.006 292.693,61.006 L298.118,61.006 L283.518,97.156 L277.443,97.156 ZM286.293,20.831 C286.293,19.265 285.935,18.052 285.218,17.194 C284.502,16.335 283.410,15.906 281.943,15.906 C280.877,15.906 279.877,16.148 278.943,16.631 C278.010,17.115 277.127,17.773 276.293,18.606 L276.293,37.156 L270.118,37.156 L270.118,11.506 L273.893,11.506 C274.693,11.506 275.218,11.881 275.468,12.631 L275.893,14.656 C276.410,14.140 276.956,13.660 277.531,13.219 C278.106,12.777 278.714,12.402 279.356,12.094 C279.997,11.785 280.685,11.543 281.418,11.368 C282.152,11.194 282.952,11.106 283.818,11.106 C285.218,11.106 286.460,11.344 287.543,11.819 C288.627,12.293 289.531,12.960 290.256,13.819 C290.981,14.677 291.531,15.702 291.906,16.893 C292.281,18.085 292.468,19.398 292.468,20.831 L292.468,37.156 L286.293,37.156 L286.293,20.831 ZM260.169,36.893 C259.852,36.719 259.602,36.365 259.419,35.831 L258.869,33.981 C258.219,34.565 257.585,35.077 256.969,35.518 C256.352,35.960 255.710,36.331 255.044,36.631 C254.377,36.931 253.664,37.160 252.906,37.319 C252.148,37.477 251.310,37.556 250.394,37.556 C249.310,37.556 248.310,37.410 247.394,37.119 C246.477,36.827 245.685,36.390 245.019,35.806 C244.352,35.223 243.835,34.498 243.469,33.631 C243.102,32.765 242.919,31.756 242.919,30.606 C242.919,29.956 243.027,29.310 243.244,28.668 C243.460,28.027 243.814,27.415 244.306,26.831 C244.798,26.248 245.435,25.698 246.219,25.181 C247.002,24.665 247.964,24.215 249.106,23.831 C250.248,23.448 251.577,23.135 253.094,22.894 C254.610,22.652 256.344,22.506 258.294,22.456 L258.294,20.956 C258.294,19.240 257.927,17.969 257.194,17.143 C256.460,16.319 255.402,15.906 254.019,15.906 C253.019,15.906 252.189,16.023 251.531,16.256 C250.873,16.490 250.294,16.752 249.794,17.043 C249.294,17.335 248.839,17.598 248.431,17.831 C248.023,18.065 247.569,18.181 247.069,18.181 C246.635,18.181 246.269,18.069 245.969,17.843 C245.669,17.618 245.427,17.356 245.244,17.056 L244.144,15.081 C247.094,12.381 250.644,11.031 254.794,11.031 C256.294,11.031 257.635,11.277 258.819,11.768 C260.002,12.260 261.002,12.944 261.819,13.819 C262.635,14.694 263.256,15.740 263.681,16.956 C264.106,18.173 264.319,19.506 264.319,20.956 L264.319,37.156 L261.519,37.156 C260.935,37.156 260.485,37.068 260.169,36.893 ZM258.294,26.206 C256.510,26.290 255.010,26.443 253.794,26.668 C252.577,26.894 251.602,27.181 250.869,27.531 C250.135,27.881 249.610,28.290 249.294,28.756 C248.977,29.223 248.819,29.731 248.819,30.281 C248.819,31.365 249.139,32.140 249.781,32.606 C250.423,33.073 251.260,33.306 252.294,33.306 C253.560,33.306 254.656,33.077 255.581,32.619 C256.506,32.160 257.410,31.465 258.294,30.531 L258.294,26.206 ZM250.869,60.606 C253.002,60.606 254.969,60.940 256.769,61.606 C258.569,62.273 260.102,63.206 261.369,64.406 L259.694,67.581 C259.494,67.931 259.281,68.185 259.056,68.344 C258.831,68.502 258.552,68.581 258.219,68.581 C257.869,68.581 257.489,68.452 257.081,68.194 C256.672,67.935 256.185,67.648 255.619,67.331 C255.052,67.015 254.389,66.727 253.631,66.469 C252.872,66.210 251.977,66.081 250.944,66.081 C250.010,66.081 249.194,66.194 248.494,66.418 C247.794,66.643 247.206,66.956 246.731,67.356 C246.256,67.756 245.902,68.235 245.669,68.793 C245.435,69.352 245.319,69.965 245.319,70.631 C245.319,71.481 245.556,72.190 246.031,72.756 C246.506,73.323 247.135,73.806 247.919,74.206 C248.702,74.606 249.594,74.965 250.594,75.281 C251.594,75.598 252.619,75.935 253.669,76.293 C254.719,76.652 255.744,77.068 256.744,77.543 C257.744,78.018 258.635,78.619 259.419,79.344 C260.202,80.068 260.831,80.956 261.306,82.006 C261.781,83.056 262.019,84.331 262.019,85.831 C262.019,87.465 261.739,88.994 261.181,90.419 C260.622,91.843 259.806,93.085 258.731,94.143 C257.656,95.202 256.344,96.035 254.794,96.643 C253.244,97.252 251.469,97.556 249.469,97.556 C248.319,97.556 247.185,97.443 246.069,97.218 C244.952,96.994 243.881,96.673 242.856,96.256 C241.831,95.840 240.869,95.340 239.969,94.756 C239.069,94.173 238.269,93.523 237.569,92.806 L239.544,89.581 C239.710,89.348 239.927,89.152 240.194,88.994 C240.460,88.835 240.744,88.756 241.044,88.756 C241.460,88.756 241.910,88.927 242.394,89.268 C242.877,89.610 243.452,89.990 244.119,90.406 C244.785,90.823 245.564,91.202 246.456,91.544 C247.347,91.885 248.419,92.056 249.669,92.056 C251.585,92.056 253.069,91.602 254.119,90.693 C255.169,89.785 255.694,88.481 255.694,86.781 C255.694,85.831 255.456,85.056 254.981,84.456 C254.506,83.856 253.877,83.352 253.094,82.943 C252.310,82.535 251.419,82.190 250.419,81.906 C249.419,81.623 248.402,81.315 247.369,80.981 C246.335,80.648 245.319,80.248 244.319,79.781 C243.319,79.315 242.427,78.706 241.644,77.956 C240.860,77.206 240.231,76.268 239.756,75.143 C239.281,74.018 239.044,72.631 239.044,70.981 C239.044,69.665 239.306,68.381 239.831,67.131 C240.356,65.881 241.119,64.773 242.119,63.806 C243.119,62.840 244.352,62.065 245.819,61.481 C247.285,60.898 248.969,60.606 250.869,60.606 ZM236.982,33.719 C236.023,34.927 234.869,35.865 233.519,36.531 C232.169,37.197 230.669,37.531 229.019,37.531 C228.219,37.531 227.494,37.452 226.844,37.293 C226.194,37.135 225.594,36.915 225.044,36.631 C224.494,36.348 223.990,36.002 223.532,35.593 C223.073,35.185 222.636,34.731 222.219,34.231 L221.944,35.956 C221.844,36.390 221.673,36.698 221.432,36.881 C221.190,37.065 220.861,37.156 220.444,37.156 L216.369,37.156 L216.369,0.006 L222.544,0.006 L222.544,14.656 C223.577,13.573 224.723,12.710 225.982,12.069 C227.240,11.427 228.677,11.106 230.294,11.106 C231.777,11.106 233.115,11.398 234.307,11.981 C235.498,12.565 236.515,13.402 237.357,14.493 C238.198,15.585 238.844,16.906 239.294,18.456 C239.744,20.006 239.969,21.748 239.969,23.681 C239.969,25.765 239.711,27.656 239.194,29.356 C238.677,31.056 237.940,32.510 236.982,33.719 ZM232.194,17.793 C231.261,16.535 229.919,15.906 228.169,15.906 C226.986,15.906 225.952,16.177 225.069,16.719 C224.186,17.260 223.344,18.023 222.544,19.006 L222.544,30.506 C223.244,31.356 224.007,31.956 224.832,32.306 C225.657,32.656 226.527,32.831 227.444,32.831 C228.394,32.831 229.248,32.660 230.007,32.318 C230.765,31.977 231.411,31.443 231.944,30.718 C232.477,29.994 232.886,29.068 233.169,27.943 C233.452,26.818 233.594,25.473 233.594,23.906 C233.594,21.090 233.127,19.052 232.194,17.793 ZM221.694,78.806 C222.294,80.440 222.594,82.265 222.594,84.281 C222.594,86.315 222.294,88.148 221.694,89.781 C221.094,91.415 220.240,92.806 219.132,93.956 C218.023,95.106 216.690,95.990 215.132,96.606 C213.573,97.222 211.844,97.531 209.944,97.531 C208.027,97.531 206.285,97.222 204.719,96.606 C203.152,95.990 201.815,95.106 200.707,93.956 C199.598,92.806 198.740,91.415 198.132,89.781 C197.523,88.148 197.219,86.315 197.219,84.281 C197.219,82.265 197.523,80.440 198.132,78.806 C198.740,77.173 199.598,75.790 200.707,74.656 C201.815,73.523 203.152,72.648 204.719,72.031 C206.285,71.415 208.027,71.106 209.944,71.106 C211.844,71.106 213.573,71.415 215.132,72.031 C216.690,72.648 218.023,73.523 219.132,74.656 C220.240,75.790 221.094,77.173 221.694,78.806 ZM214.682,78.006 C213.657,76.556 212.077,75.831 209.944,75.831 C207.777,75.831 206.173,76.560 205.132,78.018 C204.090,79.477 203.569,81.581 203.569,84.331 C203.569,87.081 204.090,89.177 205.132,90.619 C206.173,92.060 207.777,92.781 209.944,92.781 C212.077,92.781 213.657,92.065 214.682,90.631 C215.707,89.198 216.219,87.098 216.219,84.331 C216.219,81.565 215.707,79.456 214.682,78.006 ZM196.032,33.956 C194.924,35.106 193.590,35.990 192.032,36.606 C190.474,37.222 188.745,37.531 186.845,37.531 C184.928,37.531 183.186,37.222 181.620,36.606 C180.053,35.990 178.715,35.106 177.607,33.956 C176.499,32.806 175.640,31.415 175.032,29.781 C174.424,28.148 174.120,26.315 174.120,24.281 C174.120,22.265 174.424,20.440 175.032,18.806 C175.640,17.173 176.499,15.790 177.607,14.656 C178.715,13.523 180.053,12.648 181.620,12.031 C183.186,11.415 184.928,11.106 186.845,11.106 C188.745,11.106 190.474,11.415 192.032,12.031 C193.590,12.648 194.924,13.523 196.032,14.656 C197.140,15.790 197.995,17.173 198.595,18.806 C199.195,20.440 199.495,22.265 199.495,24.281 C199.495,26.315 199.195,28.148 198.595,29.781 C197.995,31.415 197.140,32.806 196.032,33.956 ZM191.582,18.006 C190.557,16.556 188.978,15.831 186.845,15.831 C184.678,15.831 183.074,16.560 182.032,18.018 C180.990,19.477 180.470,21.581 180.470,24.331 C180.470,27.081 180.990,29.177 182.032,30.619 C183.074,32.060 184.678,32.781 186.845,32.781 C188.978,32.781 190.557,32.065 191.582,30.631 C192.607,29.198 193.120,27.098 193.120,24.331 C193.120,21.565 192.607,19.456 191.582,18.006 ZM176.431,71.831 C176.739,72.048 176.944,72.323 177.044,72.656 L181.994,86.356 C182.260,87.156 182.494,87.940 182.694,88.706 C182.894,89.473 183.069,90.240 183.219,91.006 C183.385,90.240 183.569,89.473 183.769,88.706 C183.969,87.940 184.210,87.156 184.494,86.356 L189.544,72.656 C189.660,72.323 189.869,72.048 190.169,71.831 C190.469,71.615 190.827,71.506 191.244,71.506 L196.119,71.506 L185.944,97.156 L180.344,97.156 L170.169,71.506 L175.269,71.506 C175.735,71.506 176.123,71.615 176.431,71.831 ZM164.070,36.031 L163.545,33.556 C162.512,34.740 161.324,35.698 159.983,36.431 C158.641,37.164 157.078,37.531 155.295,37.531 C153.895,37.531 152.612,37.239 151.445,36.656 C150.278,36.073 149.274,35.227 148.433,34.118 C147.591,33.010 146.941,31.640 146.483,30.006 C146.024,28.373 145.795,26.506 145.795,24.406 C145.795,22.506 146.053,20.740 146.570,19.106 C147.087,17.473 147.828,16.056 148.795,14.856 C149.762,13.656 150.920,12.719 152.270,12.043 C153.620,11.368 155.137,11.031 156.820,11.031 C158.253,11.031 159.478,11.256 160.495,11.706 C161.512,12.156 162.420,12.765 163.220,13.531 L163.220,0.006 L169.395,0.006 L169.395,37.156 L165.620,37.156 C164.803,37.156 164.287,36.781 164.070,36.031 ZM163.220,18.056 C162.520,17.206 161.758,16.606 160.933,16.256 C160.108,15.906 159.220,15.731 158.270,15.731 C157.337,15.731 156.495,15.906 155.745,16.256 C154.995,16.606 154.353,17.135 153.820,17.843 C153.287,18.552 152.878,19.452 152.595,20.543 C152.312,21.635 152.170,22.923 152.170,24.406 C152.170,25.906 152.291,27.177 152.533,28.219 C152.774,29.260 153.120,30.110 153.570,30.768 C154.020,31.427 154.570,31.902 155.220,32.193 C155.870,32.485 156.595,32.631 157.395,32.631 C158.678,32.631 159.770,32.365 160.670,31.831 C161.570,31.298 162.420,30.540 163.220,29.556 L163.220,18.056 ZM148.019,71.506 L154.194,71.506 L154.194,97.156 L150.419,97.156 C149.602,97.156 149.085,96.781 148.869,96.031 L148.444,93.981 C147.394,95.048 146.235,95.910 144.969,96.568 C143.702,97.227 142.210,97.556 140.494,97.556 C139.094,97.556 137.856,97.318 136.781,96.843 C135.706,96.369 134.802,95.698 134.069,94.831 C133.335,93.965 132.781,92.935 132.406,91.744 C132.031,90.552 131.844,89.240 131.844,87.806 L131.844,71.506 L138.019,71.506 L138.019,87.806 C138.019,89.373 138.381,90.585 139.106,91.443 C139.831,92.302 140.919,92.731 142.369,92.731 C143.435,92.731 144.435,92.494 145.369,92.018 C146.302,91.544 147.185,90.890 148.019,90.056 L148.019,71.506 ZM135.096,20.831 C135.096,19.265 134.737,18.052 134.021,17.194 C133.304,16.335 132.212,15.906 130.746,15.906 C129.679,15.906 128.679,16.148 127.746,16.631 C126.812,17.115 125.929,17.773 125.096,18.606 L125.096,37.156 L118.921,37.156 L118.921,11.506 L122.696,11.506 C123.496,11.506 124.021,11.881 124.271,12.631 L124.696,14.656 C125.212,14.140 125.758,13.660 126.333,13.219 C126.908,12.777 127.516,12.402 128.158,12.094 C128.799,11.785 129.487,11.543 130.221,11.368 C130.954,11.194 131.754,11.106 132.621,11.106 C134.021,11.106 135.262,11.344 136.346,11.819 C137.429,12.293 138.333,12.960 139.058,13.819 C139.783,14.677 140.333,15.702 140.708,16.893 C141.083,18.085 141.271,19.398 141.271,20.831 L141.271,37.156 L135.096,37.156 L135.096,20.831 ZM120.670,72.631 C120.886,71.881 121.403,71.506 122.220,71.506 L125.994,71.506 L125.994,105.531 L119.820,105.531 L119.820,93.906 C118.803,94.990 117.653,95.865 116.369,96.531 C115.086,97.197 113.595,97.531 111.894,97.531 C110.494,97.531 109.211,97.239 108.045,96.656 C106.878,96.073 105.873,95.227 105.032,94.119 C104.190,93.010 103.540,91.640 103.082,90.006 C102.623,88.373 102.394,86.506 102.394,84.406 C102.394,82.506 102.653,80.740 103.170,79.106 C103.686,77.473 104.428,76.056 105.394,74.856 C106.361,73.656 107.519,72.718 108.869,72.043 C110.220,71.369 111.736,71.031 113.420,71.031 C115.019,71.031 116.361,71.306 117.445,71.856 C118.528,72.406 119.494,73.148 120.345,74.081 L120.670,72.631 ZM119.820,78.056 C119.136,77.206 118.378,76.606 117.545,76.256 C116.711,75.906 115.820,75.731 114.869,75.731 C113.936,75.731 113.095,75.906 112.345,76.256 C111.595,76.606 110.953,77.135 110.420,77.844 C109.886,78.552 109.478,79.452 109.195,80.543 C108.911,81.635 108.769,82.923 108.769,84.406 C108.769,85.906 108.890,87.177 109.132,88.218 C109.373,89.260 109.720,90.110 110.170,90.768 C110.619,91.427 111.170,91.902 111.820,92.193 C112.470,92.485 113.195,92.631 113.994,92.631 C115.278,92.631 116.369,92.365 117.269,91.831 C118.170,91.298 119.019,90.540 119.820,89.556 L119.820,78.056 ZM108.971,36.893 C108.654,36.719 108.404,36.365 108.221,35.831 L107.671,33.981 C107.021,34.565 106.387,35.077 105.771,35.518 C105.154,35.960 104.512,36.331 103.846,36.631 C103.179,36.931 102.467,37.160 101.708,37.319 C100.950,37.477 100.112,37.556 99.196,37.556 C98.112,37.556 97.112,37.410 96.196,37.119 C95.279,36.827 94.487,36.390 93.821,35.806 C93.154,35.223 92.637,34.498 92.271,33.631 C91.904,32.765 91.721,31.756 91.721,30.606 C91.721,29.956 91.829,29.310 92.046,28.668 C92.262,28.027 92.617,27.415 93.108,26.831 C93.600,26.248 94.237,25.698 95.021,25.181 C95.804,24.665 96.767,24.215 97.908,23.831 C99.050,23.448 100.379,23.135 101.896,22.894 C103.412,22.652 105.146,22.506 107.096,22.456 L107.096,20.956 C107.096,19.240 106.729,17.969 105.996,17.143 C105.262,16.319 104.204,15.906 102.821,15.906 C101.821,15.906 100.992,16.023 100.333,16.256 C99.675,16.490 99.096,16.752 98.596,17.043 C98.096,17.335 97.642,17.598 97.233,17.831 C96.825,18.065 96.371,18.181 95.871,18.181 C95.437,18.181 95.071,18.069 94.771,17.843 C94.471,17.618 94.229,17.356 94.046,17.056 L92.946,15.081 C95.896,12.381 99.446,11.031 103.596,11.031 C105.096,11.031 106.437,11.277 107.621,11.768 C108.804,12.260 109.804,12.944 110.621,13.819 C111.437,14.694 112.058,15.740 112.483,16.956 C112.908,18.173 113.121,19.506 113.121,20.956 L113.121,37.156 L110.321,37.156 C109.737,37.156 109.287,37.068 108.971,36.893 ZM107.096,26.206 C105.312,26.290 103.812,26.443 102.596,26.668 C101.379,26.894 100.404,27.181 99.671,27.531 C98.937,27.881 98.412,28.290 98.096,28.756 C97.779,29.223 97.621,29.731 97.621,30.281 C97.621,31.365 97.942,32.140 98.583,32.606 C99.225,33.073 100.062,33.306 101.096,33.306 C102.362,33.306 103.458,33.077 104.383,32.619 C105.308,32.160 106.212,31.465 107.096,30.531 L107.096,26.206 ZM98.320,71.031 C99.503,71.031 100.453,71.290 101.170,71.806 L100.770,76.431 C100.686,76.731 100.565,76.943 100.407,77.068 C100.249,77.193 100.036,77.256 99.770,77.256 C99.520,77.256 99.149,77.215 98.657,77.131 C98.165,77.048 97.686,77.006 97.220,77.006 C96.536,77.006 95.928,77.106 95.395,77.306 C94.861,77.506 94.382,77.793 93.957,78.168 C93.532,78.543 93.157,78.998 92.832,79.531 C92.507,80.065 92.203,80.673 91.920,81.356 L91.920,97.156 L85.745,97.156 L85.745,71.506 L89.370,71.506 C90.003,71.506 90.445,71.619 90.695,71.844 C90.945,72.068 91.111,72.473 91.195,73.056 L91.570,75.956 C92.370,74.423 93.320,73.219 94.420,72.343 C95.520,71.468 96.820,71.031 98.320,71.031 ZM83.334,31.906 C83.725,32.356 84.263,32.581 84.946,32.581 C85.329,32.581 85.650,32.535 85.909,32.443 C86.167,32.352 86.392,32.256 86.584,32.156 C86.775,32.056 86.946,31.960 87.096,31.869 C87.246,31.777 87.396,31.731 87.546,31.731 C87.729,31.731 87.879,31.777 87.996,31.869 C88.113,31.960 88.238,32.098 88.371,32.281 L90.221,35.281 C89.321,36.031 88.288,36.598 87.121,36.981 C85.954,37.364 84.746,37.556 83.496,37.556 C81.263,37.556 79.550,36.927 78.359,35.668 C77.167,34.410 76.571,32.673 76.571,30.456 L76.571,16.131 L73.946,16.131 C73.613,16.131 73.329,16.023 73.096,15.806 C72.863,15.590 72.746,15.265 72.746,14.831 L72.746,12.381 L76.871,11.706 L78.171,4.706 C78.254,4.373 78.413,4.115 78.646,3.931 C78.879,3.748 79.179,3.656 79.546,3.656 L82.746,3.656 L82.746,11.731 L89.596,11.731 L89.596,16.131 L82.746,16.131 L82.746,30.031 C82.746,30.831 82.942,31.456 83.334,31.906 ZM59.734,20.781 C60.325,21.065 60.996,21.318 61.746,21.543 C62.496,21.769 63.259,22.015 64.034,22.281 C64.809,22.548 65.571,22.852 66.321,23.193 C67.071,23.535 67.742,23.968 68.334,24.493 C68.925,25.019 69.400,25.648 69.759,26.381 C70.117,27.115 70.296,27.998 70.296,29.031 C70.296,30.265 70.075,31.402 69.634,32.443 C69.192,33.485 68.538,34.385 67.671,35.144 C66.804,35.902 65.734,36.493 64.459,36.919 C63.184,37.344 61.713,37.556 60.046,37.556 C59.163,37.556 58.300,37.477 57.459,37.319 C56.617,37.160 55.809,36.940 55.034,36.656 C54.259,36.373 53.542,36.040 52.884,35.656 C52.225,35.273 51.646,34.856 51.146,34.406 L52.571,32.056 C52.754,31.773 52.971,31.556 53.221,31.406 C53.471,31.256 53.788,31.181 54.171,31.181 C54.554,31.181 54.917,31.290 55.259,31.506 C55.600,31.723 55.996,31.956 56.446,32.206 C56.896,32.456 57.425,32.690 58.034,32.906 C58.642,33.123 59.413,33.231 60.346,33.231 C61.079,33.231 61.709,33.143 62.234,32.969 C62.759,32.793 63.192,32.565 63.534,32.281 C63.875,31.998 64.125,31.668 64.284,31.293 C64.442,30.918 64.521,30.531 64.521,30.131 C64.521,29.531 64.342,29.040 63.984,28.656 C63.625,28.273 63.150,27.940 62.559,27.656 C61.967,27.373 61.292,27.118 60.534,26.894 C59.775,26.668 59.000,26.423 58.209,26.156 C57.417,25.890 56.642,25.577 55.884,25.219 C55.125,24.860 54.450,24.406 53.859,23.856 C53.267,23.306 52.792,22.631 52.434,21.831 C52.075,21.031 51.896,20.065 51.896,18.931 C51.896,17.881 52.104,16.881 52.521,15.931 C52.938,14.981 53.550,14.152 54.359,13.444 C55.167,12.735 56.175,12.168 57.384,11.743 C58.592,11.319 59.988,11.106 61.571,11.106 C63.338,11.106 64.946,11.398 66.396,11.981 C67.846,12.565 69.054,13.331 70.021,14.281 L68.621,16.506 C68.454,16.773 68.279,16.960 68.096,17.069 C67.913,17.177 67.679,17.231 67.396,17.231 C67.096,17.231 66.775,17.148 66.434,16.981 C66.092,16.815 65.696,16.627 65.246,16.418 C64.796,16.210 64.284,16.023 63.709,15.856 C63.134,15.690 62.454,15.606 61.671,15.606 C60.454,15.606 59.500,15.865 58.809,16.381 C58.117,16.898 57.771,17.573 57.771,18.406 C57.771,18.956 57.950,19.418 58.309,19.793 C58.667,20.168 59.142,20.498 59.734,20.781 ZM46.896,25.106 L31.021,25.106 C31.121,26.423 31.355,27.560 31.721,28.519 C32.088,29.477 32.571,30.268 33.171,30.893 C33.771,31.518 34.484,31.985 35.309,32.293 C36.134,32.602 37.046,32.756 38.046,32.756 C39.046,32.756 39.909,32.640 40.634,32.406 C41.359,32.173 41.992,31.915 42.534,31.631 C43.075,31.348 43.550,31.090 43.959,30.856 C44.367,30.623 44.763,30.506 45.146,30.506 C45.663,30.506 46.046,30.698 46.296,31.081 L48.071,33.331 C47.388,34.131 46.621,34.802 45.771,35.344 C44.921,35.885 44.034,36.318 43.109,36.644 C42.184,36.968 41.242,37.197 40.284,37.331 C39.325,37.464 38.396,37.531 37.496,37.531 C35.713,37.531 34.055,37.235 32.521,36.644 C30.988,36.052 29.655,35.177 28.521,34.018 C27.388,32.860 26.496,31.427 25.846,29.719 C25.196,28.010 24.871,26.031 24.871,23.781 C24.871,22.031 25.155,20.385 25.721,18.844 C26.288,17.302 27.100,15.960 28.159,14.819 C29.217,13.677 30.509,12.773 32.034,12.106 C33.559,11.440 35.280,11.106 37.196,11.106 C38.813,11.106 40.305,11.365 41.671,11.881 C43.038,12.398 44.213,13.152 45.196,14.143 C46.180,15.135 46.950,16.352 47.509,17.793 C48.067,19.235 48.346,20.881 48.346,22.731 C48.346,23.665 48.246,24.293 48.046,24.618 C47.846,24.943 47.463,25.106 46.896,25.106 ZM42.459,19.118 C42.234,18.410 41.896,17.790 41.446,17.256 C40.996,16.723 40.425,16.302 39.734,15.993 C39.042,15.685 38.238,15.531 37.321,15.531 C35.538,15.531 34.134,16.040 33.109,17.056 C32.084,18.073 31.430,19.515 31.146,21.381 L42.796,21.381 C42.796,20.581 42.684,19.827 42.459,19.118 ZM17.622,37.156 L10.897,37.156 L10.897,6.531 L-0.003,6.531 L-0.003,1.006 L28.522,1.006 L28.522,6.531 L17.622,6.531 L17.622,37.156 ZM68.770,61.006 L82.970,97.156 L77.770,97.156 C77.187,97.156 76.712,97.010 76.345,96.718 C75.978,96.427 75.703,96.065 75.520,95.631 L72.820,88.256 L57.845,88.256 L55.145,95.631 C55.012,96.015 54.753,96.365 54.370,96.681 C53.987,96.998 53.512,97.156 52.945,97.156 L47.695,97.156 L61.920,61.006 L68.770,61.006 ZM71.095,83.506 L66.695,71.481 C66.478,70.948 66.253,70.315 66.020,69.581 C65.787,68.848 65.553,68.056 65.320,67.206 C65.103,68.056 64.878,68.852 64.645,69.593 C64.412,70.335 64.187,70.981 63.970,71.531 L59.595,83.506 L71.095,83.506 ZM160.794,61.231 C161.144,60.881 161.556,60.602 162.031,60.393 C162.506,60.185 163.010,60.081 163.544,60.081 C164.094,60.081 164.610,60.185 165.094,60.393 C165.577,60.602 165.998,60.881 166.356,61.231 C166.714,61.581 167.002,61.998 167.219,62.481 C167.435,62.965 167.544,63.481 167.544,64.031 C167.544,64.565 167.435,65.065 167.219,65.531 C167.002,65.998 166.714,66.406 166.356,66.756 C165.998,67.106 165.577,67.385 165.094,67.593 C164.610,67.802 164.094,67.906 163.544,67.906 C163.010,67.906 162.506,67.802 162.031,67.593 C161.556,67.385 161.144,67.106 160.794,66.756 C160.444,66.406 160.164,65.998 159.956,65.531 C159.748,65.065 159.644,64.565 159.644,64.031 C159.644,63.481 159.748,62.965 159.956,62.481 C160.164,61.998 160.444,61.581 160.794,61.231 ZM166.694,97.156 L160.494,97.156 L160.494,71.506 L166.694,71.506 L166.694,97.156 ZM372.542,31.081 C372.875,30.748 373.275,30.481 373.742,30.281 C374.208,30.081 374.708,29.981 375.242,29.981 C375.775,29.981 376.271,30.081 376.729,30.281 C377.188,30.481 377.588,30.748 377.929,31.081 C378.271,31.415 378.542,31.815 378.742,32.281 C378.942,32.748 379.042,33.240 379.042,33.756 C379.042,34.290 378.942,34.785 378.742,35.243 C378.542,35.702 378.271,36.098 377.929,36.431 C377.588,36.765 377.188,37.027 376.729,37.219 C376.271,37.410 375.775,37.506 375.242,37.506 C374.708,37.506 374.208,37.410 373.742,37.219 C373.275,37.027 372.875,36.765 372.542,36.431 C372.208,36.098 371.946,35.702 371.754,35.243 C371.563,34.785 371.467,34.290 371.467,33.756 C371.467,33.240 371.563,32.748 371.754,32.281 C371.946,31.815 372.208,31.415 372.542,31.081 Z" class="cls-1"/>
</svg>
